# xmcd
#
# Track frame offsets: 
#        182
#        24825
#        38712
#        57225
#        91000
#        110200
#        127600
#        138625
#        179700
#
# Disc length: 2635 seconds
#
# Revision: 0
# Processed by: cddbd v1.4PL0 Copyright (c) Steve Scherf et al.
# Submitted via: ExactAudioCopy v0.90b4
#
DISCID=720a4909
DTITLE=Gary Moore - Blues from a Gun CD1
DYEAR=1992
DGENRE=Blues
TTITLE0=Cold Day in Hell
TTITLE1=Since I met you Baby
TTITLE2=Walking by Myself (J. Rodgers)
TTITLE3=Story of the Blues
TTITLE4=Oh Pretty Woman (Williams)
TTITLE5=All your Love (Rush)
TTITLE6=Key to Love (J. Mayall)
TTITLE7=Seperate Ways
TTITLE8=You don't Love me
EXTD=
EXTT0=
EXTT1=
EXTT2=
EXTT3=
EXTT4=
EXTT5=
EXTT6=
EXTT7=
EXTT8=
PLAYORDER=
